<?xml version="1.0" encoding="utf-8"?>
<!-- Generator: Adobe Illustrator 27.0.0, SVG Export Plug-In . SVG Version: 6.00 Build 0)  -->
<svg version="1.1" id="Camada_1" xmlns="http://www.w3.org/2000/svg" xmlns:xlink="http://www.w3.org/1999/xlink" x="0px" y="0px"
	 viewBox="0 0 81.21 97.14" style="enable-background:new 0 0 81.21 97.14;" xml:space="preserve">
<style type="text/css">
	.st0{fill:#EB6645;}
	.st1{fill:#472759;}
</style>
<g>
	<path class="st0" d="M61.81,36.54c-0.05-0.7-0.06-1.3-0.06-1.9c-0.38-3.97-1.58-7.24-3.72-9.75c-2.6-3.03-5.69-4.55-9.29-4.55
		c-3.86,0-7.45,2.31-10.8,6.94V16.88c0-5.35,0.18-8.74,0.54-10.18c0.46-1.34,1.09-2.3,1.89-2.89c0.8-0.59,1.71-0.89,2.74-0.89
		c0.93,0,1.82,0.26,2.7,0.77c0.87,0.51,1.7,1.41,2.47,2.7c1.23,1.54,2.06,2.47,2.47,2.78C51.41,9.53,52,9.7,52.52,9.7
		c0.87-0.15,1.61-0.53,2.2-1.12C55.3,8,55.6,7.31,55.6,6.54c0-1.44-0.75-2.7-2.24-3.78c-2.26-1.7-4.68-2.54-7.25-2.54
		c-2.88,0-5.45,0.74-7.71,2.23c-2.26,1.49-3.93,3.39-5.01,5.7c-0.77,1.64-1.25,2.85-1.43,3.62c-0.18,0.77-0.27,2.47-0.27,5.08V27.6
		c1-0.19,4.7-0.75,8.03,0.47c0.82-0.68,1.52-1.15,2.07-1.4c1.28-0.67,2.6-1,3.93-1c2.52,0,4.77,1.22,6.75,3.65
		c1.98,2.44,2.97,5.78,2.97,10.04c0,4.87-1.03,8.54-3.08,11c-2.06,2.46-4.14,3.69-6.25,3.69c-1.44,0-2.85-0.31-4.24-0.92l-2.08-1.23
		l-1.85-1.61V36.41c-0.62-1.99-2.23-3.97-6.25-3.28v15.76c1.54,1.68,7.02,7,15.04,7C56.24,55.88,62.25,43.32,61.81,36.54"/>
	<path class="st0" d="M32.43,28.79C32.43,28.79,32.42,28.79,32.43,28.79C32.42,28.79,32.43,28.79,32.43,28.79 M23.99,45.31
		c0-3.31,0.79-6.45,2.15-9.2c0.71-1.2,3.94-5.91,9.86-4.45c0.55,0.22,1.05,0.52,1.49,0.91c1.01,0.9,1.51,2.06,1.51,3.47l0.33,1.64
		c0.27,0.87,0.49,1.39,0.65,1.55c0.82,0.98,1.99,1.47,3.51,1.47c1.2,0,2.11-0.31,2.74-0.94c0.63-0.63,0.94-1.43,0.94-2.41
		c0-2.02-1.13-3.98-3.39-5.89c-2.26-1.91-5.22-2.86-8.87-2.86c-0.44,0-0.88,0.02-1.31,0.05c-0.05,0-0.11,0.01-0.17,0.01
		c-3.99,0.32-7.47,1.97-10.46,4.93c-0.06,0.06-0.12,0.12-0.18,0.18c-0.07,0.07-0.15,0.14-0.22,0.22c-0.04,0.04-0.07,0.08-0.1,0.11
		c-3.46,3.66-5.5,8.74-5.5,14.11c0,10.93,8.86,19.8,19.8,19.8c8.08,0,15.03-4.85,18.11-11.79c-3.07,4.89-8.15,8.1-13.9,8.1
		C31.59,64.33,23.99,55.82,23.99,45.31"/>
	<path class="st1" d="M71.91,81.3l1.54-3.74l1.66,3.74H71.91z M68.52,85.67h1.52l1.29-3.06h4.4l1.37,3.06h1.51L73.99,75.3h-1.04
		L68.52,85.67z M62.25,85.67h6.12v-1.34h-4.64v-8.97h-1.48V85.67z M54.83,85.67h6.12v-1.34h-4.64v-8.97h-1.48V85.67z M47.27,85.66
		h5.99v-1.31h-4.51v-3.2h4.22v-1.32h-4.22v-3.15h4.37v-1.31h-5.85V85.66z M43.23,81.28c0.34,0.13,0.6,0.32,0.79,0.58
		c0.18,0.26,0.28,0.55,0.28,0.86c0,0.31-0.09,0.59-0.26,0.86c-0.17,0.27-0.41,0.46-0.69,0.59c-0.29,0.13-0.84,0.19-1.64,0.19h-1.45
		v-3.27h1.38C42.35,81.09,42.89,81.15,43.23,81.28 M43.4,78.16c0,0.48-0.17,0.87-0.5,1.17c-0.33,0.3-0.89,0.45-1.68,0.45h-0.98v-3.1
		h1.27C42.77,76.67,43.4,77.17,43.4,78.16 M44.22,85.28c0.52-0.26,0.92-0.6,1.19-1.01c0.27-0.41,0.41-0.88,0.41-1.41
		c0-0.66-0.22-1.24-0.67-1.71c-0.45-0.48-1.04-0.79-1.8-0.93c1.05-0.44,1.57-1.16,1.57-2.18c0-0.53-0.13-0.99-0.38-1.39
		c-0.25-0.4-0.62-0.72-1.09-0.95c-0.48-0.23-1.14-0.34-1.99-0.34h-2.7v10.31h3.49C43.04,85.67,43.7,85.54,44.22,85.28 M30.36,81.44
		l2.21-4.86l2.22,4.86H30.36z M32.36,75.29L27.6,85.67h0.84l1.63-3.57h5.04l1.63,3.57h0.84L32.8,75.29H32.36z M24.1,75.23
		c-0.82,0-1.52,0.27-2.1,0.8c-0.58,0.53-0.87,1.18-0.87,1.94c0,0.55,0.12,0.99,0.36,1.34c0.24,0.35,0.53,0.61,0.87,0.8
		c0.34,0.19,0.91,0.43,1.71,0.74c0.8,0.31,1.33,0.64,1.59,0.99c0.26,0.35,0.39,0.75,0.39,1.19c0,0.58-0.21,1.06-0.63,1.46
		c-0.42,0.4-0.94,0.59-1.55,0.59c-0.73,0-1.6-0.37-2.6-1.1v0.94c0.91,0.6,1.79,0.9,2.64,0.9c0.84,0,1.55-0.27,2.13-0.82
		c0.58-0.55,0.87-1.22,0.87-2.01c0-0.6-0.13-1.08-0.38-1.45c-0.25-0.37-0.56-0.66-0.92-0.86c-0.36-0.2-0.93-0.44-1.71-0.74
		c-0.78-0.3-1.3-0.6-1.54-0.92C22.12,78.69,22,78.33,22,77.93c0-0.56,0.21-1.02,0.62-1.4c0.42-0.38,0.93-0.56,1.55-0.56
		c0.64,0,1.41,0.26,2.31,0.79v-0.88C25.7,75.44,24.91,75.23,24.1,75.23 M13.18,81.44l2.21-4.86l2.22,4.86H13.18z M15.18,75.29
		l-4.77,10.39h0.84l1.63-3.57h5.04l1.63,3.57h0.84l-4.77-10.39H15.18z M5.6,75.23c-1.48,0-2.75,0.51-3.82,1.52
		c-1.07,1.01-1.6,2.28-1.6,3.79c0,1.5,0.52,2.76,1.57,3.76c1.05,1.01,2.35,1.51,3.92,1.51c1.22,0,2.43-0.32,3.65-0.97v-0.83
		c-1.32,0.7-2.55,1.06-3.67,1.06c-1.34,0-2.45-0.43-3.32-1.28c-0.87-0.85-1.3-1.94-1.3-3.26c0-1.3,0.43-2.39,1.29-3.26
		c0.86-0.87,1.93-1.31,3.21-1.31c1.2,0,2.43,0.33,3.68,1v-0.87C7.97,75.51,6.76,75.23,5.6,75.23"/>
	<path class="st0" d="M77.6,91.9c-0.25,0.27-0.52,0.57-0.7,0.79c-0.02-0.05-0.02-0.07-0.02-0.12c0-0.35,0.32-0.7,0.6-0.7
		C77.52,91.88,77.55,91.9,77.6,91.9 M77.87,92.05c0.4,0.27,0.89,0.65,1.37,0.89c-0.2,0.3-0.52,0.52-0.99,0.52
		c-0.5,0-1.09-0.27-1.29-0.62C77.2,92.67,77.55,92.37,77.87,92.05 M78.22,91.68c0.47-0.5,0.92-1.17,1.34-1.79
		c0.2,0.03,0.32,2.01-0.12,2.78c-0.42-0.2-0.89-0.57-1.34-0.87C78.15,91.78,78.17,91.73,78.22,91.68 M76.7,93
		c0.32,0.55,0.92,0.82,1.52,0.79c0.5-0.02,0.92,0.02,1.54-0.65c0.05,0.02,0.12,0.02,0.17,0.02c0.6,0,1.09-0.45,1.09-0.55
		c0-0.02,0-0.02-0.02-0.02c-0.07,0-0.67,0.3-1.04,0.27c0.67-1.02,0.42-3.6-0.17-3.73c-0.52-0.1-0.35,0.25-0.37,0.27
		c-0.89,1.47-1.27,1.81-1.59,2.24c-0.12-0.05-0.27-0.07-0.37-0.07c-0.52,0-0.89,0.45-0.89,0.89C76.56,92.67,76.61,92.82,76.7,93
		 M73.53,93.05c-0.47,0.3-0.7,0.37-0.77,0.35c-0.07-0.02-0.07-0.12-0.07-0.17c0-0.72,1.04-1.81,1.04-1.81
		c0.3-0.32,1.42-1.61,1.84-1.61c0.25,0,0.27,0.35,0.27,0.57C75.84,91.55,73.62,92.97,73.53,93.05 M77.35,89.59
		c0.02-0.02,0.07-0.15,0.07-0.25c0-0.07-0.02-0.15-0.17-0.15c-0.57,0-0.89,0.55-1.14,0.92c0.12-0.7-0.37-1.07-0.87-0.84
		c0,0-0.75,0.12-2.14,1.84c0,0-0.89,1.12-0.89,1.99c0,0.22,0.02,0.67,0.5,0.67c0.15,0,0.32-0.02,0.57-0.17c0,0,1.07-0.65,1.61-1.17
		V92.4c-0.12,0.37-0.15,0.6-0.15,0.87c0,0,0.02,0.55,0.55,0.55c0-0.02,0.42,0.12,1.86-1.12c0,0,0.17-0.2,0.17-0.3
		c0-0.02-0.02-0.05-0.05-0.05c-0.2,0-1.52,1.14-1.94,1.14c-0.07,0-0.2-0.02-0.2-0.22C75.14,93.07,75.21,92.47,77.35,89.59
		 M72.83,88.57c0.02,0.02,0.05,0.02,0.1,0.02c0.25,0,0.65-0.5,0.65-0.89c0-0.15-0.07-0.22-0.17-0.22c-0.27,0-0.67,0.55-0.67,0.89
		C72.73,88.48,72.76,88.55,72.83,88.57 M71.91,89.59c-1.02,1.47-1.71,2.78-1.71,3.68c0,0-0.02,0.52,0.55,0.55
		c0.05,0,0.55,0.02,1.84-1.12c0,0,0.17-0.2,0.17-0.3c0-0.02-0.02-0.05-0.05-0.05c-0.02,0-0.07,0-0.12,0.02
		c0,0.05-1.42,1.17-1.79,1.12c-0.07,0-0.2-0.02-0.2-0.2c0-0.05,0-0.1,0.02-0.17c0,0,0.17-0.79,2.16-3.53
		c0.02-0.02,0.1-0.15,0.1-0.25c0-0.1-0.05-0.15-0.17-0.15C72.43,89.2,72.06,89.42,71.91,89.59 M69.58,89.29
		c-0.94,0.32-2.73,2.53-2.73,3.63c0,0.5,0.17,0.92,0.89,0.89c1.14-0.05,3.45-1.94,3.45-2.71c0-0.02-0.02-0.07-0.05-0.05
		c-0.32,0.55-2.01,2.41-3.43,2.41c-0.2,0-0.42-0.07-0.42-0.32c0-0.84,1.69-2.68,2.26-3.05c0.22-0.15,0.4-0.2,0.55-0.2
		c0,0.45-0.47,0.87-0.47,1.07c0,0.05-0.02,0.27,0.07,0.3l0.03-0.02l-0.03,0.02c0,0,0.55,0.02,0.72-0.89
		c0.12-0.7-0.07-1.14-0.55-1.14C69.8,89.22,69.7,89.25,69.58,89.29 M67.17,92.37c0,0.02-1.56,1.12-1.79,1.12
		c-0.1,0-0.2-0.02-0.2-0.37c0-0.07,0.05-0.6,1.91-3.15c0.02-0.02,0.05-0.12,0.05-0.25c0-0.32-0.15-0.67-0.99-0.47
		c-0.97,0.4-1.76,1.02-2.46,1.76c0.35-0.5,1.09-1.34,1.09-1.66c0-0.07-0.02-0.15-0.12-0.15c-0.87,0-1.81,1.76-2.56,3.63
		c-0.1,0.25-0.12,0.45-0.12,0.62c0,0.2,0.05,0.32,0.12,0.32c0.2,0,0.27-0.37,0.62-0.94c0.82-1.34,2.06-2.71,3.5-3.25
		c0.07-0.02,0.15-0.05,0.22-0.05c0.05,0.07-0.07,0.25-0.22,0.45c-0.87,1.32-1.47,2.31-1.47,3.13c0,0.5,0.3,0.72,0.57,0.72
		c-0.05,0,0.22,0.15,1.84-1.12c0,0,0.17-0.2,0.17-0.3c0-0.02-0.02-0.05-0.05-0.05C67.27,92.35,67.22,92.35,67.17,92.37 M62.4,87.68
		c-0.1-0.17-0.2-0.22-0.3-0.22c-0.1,0-0.17,0.05-0.17,0.05c-0.22,0.1-1.42,0.72-1.42,0.74c0,0.05,0.02,0.1,0.2,0.1
		c0.47,0,0.67-0.1,1.22-0.27c0.55,0.67,0.92,0.77,1.12,0.77c0.2,0,0.1-0.05,0.15-0.1C62.72,88.5,62.65,88.13,62.4,87.68
		 M58.95,93.05c-0.47,0.3-0.7,0.37-0.77,0.35c-0.07-0.02-0.07-0.12-0.07-0.17c0-0.72,1.04-1.81,1.04-1.81
		c0.3-0.32,1.42-1.61,1.84-1.61c0.25,0,0.27,0.35,0.27,0.57C61.26,91.55,59.05,92.97,58.95,93.05 M62.77,89.59
		c0.02-0.02,0.07-0.15,0.07-0.25c0-0.07-0.02-0.15-0.17-0.15c-0.57,0-0.89,0.55-1.14,0.92c0.12-0.7-0.37-1.07-0.87-0.84
		c0,0-0.75,0.12-2.14,1.84c0,0-0.89,1.12-0.89,1.99c0,0.22,0.02,0.67,0.5,0.67c0.15,0,0.32-0.02,0.57-0.17c0,0,1.07-0.65,1.61-1.17
		V92.4c-0.12,0.37-0.15,0.6-0.15,0.87c0,0,0.02,0.55,0.55,0.55c0-0.02,0.42,0.12,1.86-1.12c0,0,0.17-0.2,0.17-0.3
		c0-0.02-0.02-0.05-0.05-0.05c-0.2,0-1.52,1.14-1.94,1.14c-0.07,0-0.2-0.02-0.2-0.22C60.56,93.07,60.64,92.47,62.77,89.59
		 M58.05,89.67c-0.07,0.52-0.42,1.04-0.5,1.22c-0.05,0.12-0.1,0.45,0.12,0.45c0.12,0,0.77-0.27,0.77-1.42c0-0.5-0.22-0.72-0.52-0.72
		c-0.65,0-1.66,0.99-2.14,1.49c0.27-0.42,0.87-1.07,0.87-1.37c0-0.07-0.05-0.1-0.12-0.12c-0.82-0.15-1.69,1.76-2.56,3.63
		c-0.12,0.25-0.12,0.47-0.12,0.62c0,0.2,0.05,0.32,0.12,0.32c0.17,0,0.22-0.3,0.6-0.92c0.75-1.27,1.81-2.53,3.08-3.23
		C57.78,89.54,58.05,89.47,58.05,89.67 M51.3,93.05c-0.45,0.27-0.65,0.35-0.75,0.35c-0.07,0-0.07-0.12-0.07-0.17
		c0-0.72,1.04-1.81,1.04-1.81c0.3-0.3,1.42-1.61,1.84-1.61c0.27,0.02,0.25,0.57,0.25,0.72C53.01,92.08,51.3,93.05,51.3,93.05
		 M48.59,96.6c-0.42,0-1.02-0.22-1.02-0.79c0-0.89,1.47-1.12,2.29-1.12c0.47,0,0.92,0.1,1.37,0.15
		C50.58,95.75,49.68,96.6,48.59,96.6 M51.45,94.59c-0.5-0.1-1.02-0.17-1.52-0.17c-0.99,0-2.71,0.17-2.71,1.42
		c0,0.72,0.92,1.09,1.42,1.09c1.32,0,2.31-0.77,3.23-1.94c1.86,0.4,3.28,0.67,4.74,0.67c1.59,0,3.3-0.2,5.41-1.09
		c0.3-0.12,1.14-0.47,1.14-0.92c0-0.1-0.07-0.17-0.17-0.17c-0.57,0-0.7,0.67-1.17,0.87c-2.01,0.87-3.63,1.04-5.07,1.04
		s-2.86-0.32-4.72-0.67c0.75-1.07,1.86-3.45,3.1-5.12c0.03-0.02,0.07-0.15,0.07-0.25c0-0.07-0.02-0.15-0.12-0.15
		c-0.65,0-0.97,0.57-1.17,0.97v-0.1c0-0.22-0.05-0.84-0.67-0.84c-0.07,0-0.15,0.02-0.25,0.05c0,0-0.75,0.12-2.14,1.84
		c0,0-0.89,1.12-0.89,1.99c0,0.3,0.05,0.67,0.6,0.67c0.12,0,0.27-0.05,0.5-0.17c0,0,1.07-0.65,1.61-1.17l0.02-0.05
		C52.29,93.22,51.89,93.94,51.45,94.59 M46.8,93.05c-0.47,0.3-0.7,0.37-0.77,0.35c-0.07-0.02-0.07-0.12-0.07-0.17
		c0-0.72,1.04-1.81,1.04-1.81c0.3-0.32,1.42-1.61,1.84-1.61c0.25,0,0.27,0.35,0.27,0.57C49.11,91.55,46.9,92.97,46.8,93.05
		 M50.63,89.59c0.03-0.02,0.07-0.15,0.07-0.25c0-0.07-0.02-0.15-0.17-0.15c-0.57,0-0.89,0.55-1.14,0.92
		c0.12-0.7-0.37-1.07-0.87-0.84c0,0-0.75,0.12-2.14,1.84c0,0-0.89,1.12-0.89,1.99c0,0.22,0.02,0.67,0.5,0.67
		c0.15,0,0.32-0.02,0.57-0.17c0,0,1.07-0.65,1.61-1.17V92.4c-0.12,0.37-0.15,0.6-0.15,0.87c0,0,0.02,0.55,0.55,0.55
		c0-0.02,0.42,0.12,1.86-1.12c0,0,0.17-0.2,0.17-0.3c0-0.02-0.02-0.05-0.05-0.05c-0.2,0-1.52,1.14-1.94,1.14
		c-0.07,0-0.2-0.02-0.2-0.22C48.42,93.07,48.49,92.47,50.63,89.59 M45.91,89.67c-0.07,0.52-0.42,1.04-0.5,1.22
		c-0.05,0.12-0.1,0.45,0.12,0.45c0.12,0,0.77-0.27,0.77-1.42c0-0.5-0.22-0.72-0.52-0.72c-0.65,0-1.66,0.99-2.14,1.49
		c0.27-0.42,0.87-1.07,0.87-1.37c0-0.07-0.05-0.1-0.12-0.12c-0.82-0.15-1.69,1.76-2.56,3.63c-0.12,0.25-0.12,0.47-0.12,0.62
		c0,0.2,0.05,0.32,0.12,0.32c0.17,0,0.22-0.3,0.6-0.92c0.75-1.27,1.81-2.53,3.08-3.23C45.64,89.54,45.91,89.47,45.91,89.67
		 M41.24,89.42c-0.07-0.12-0.1-0.25-0.2-0.37h1.07c-0.22,0.27-0.42,0.57-0.65,0.87C41.39,89.74,41.31,89.57,41.24,89.42
		 M39.45,95.03c-0.07,0-0.15-0.05-0.15-0.2c0-0.55,0.97-2.09,2.11-3.7c0,0.12,0.02,0.25,0.02,0.35
		C41.44,92.42,40.52,95.03,39.45,95.03 M41.71,90.74c0.42-0.57,0.87-1.17,1.27-1.69h0.25c0.15,0,0.35-0.07,0.35-0.17
		c0-0.07-0.2-0.15-0.35-0.15c0.84-1.09,1.49-1.89,1.49-1.89s0.15-0.22,0.15-0.45c0-0.1-0.07-0.32-0.25-0.32
		c-0.12,0,0.2-0.57-2.26,2.66h-1.54c-0.07,0,0.1,0,0.05,0.02c-0.4-0.35-0.89-0.77-1.29-0.77c-0.1,0-0.17,0.02-0.17,0.12
		c0,0.45,1.12,0.84,1.24,0.92c0.25,0.37,0.45,0.77,0.6,1.19c-1.22,1.71-2.33,3.55-2.33,4.47v0.1c0,0,0.02,0.55,0.55,0.55
		c1.42,0,2.31-2.78,2.31-3.85C41.76,91.23,41.76,90.98,41.71,90.74"/>
</g>
</svg>
