<?xml version="1.0" encoding="utf-8"?>
<!-- Generator: Adobe Illustrator 27.0.0, SVG Export Plug-In . SVG Version: 6.00 Build 0)  -->
<svg version="1.1" id="Camada_1" xmlns="http://www.w3.org/2000/svg" xmlns:xlink="http://www.w3.org/1999/xlink" x="0px" y="0px"
	 viewBox="0 0 120.89 36.69" style="enable-background:new 0 0 120.89 36.69;" xml:space="preserve">
<style type="text/css">
	.st0{fill:#321D47;}
	.st1{fill:#DD1650;}
</style>
<g id="Grupo_87389" transform="translate(-50.389 -99.666)">
	<path id="Caminho_2221" class="st0" d="M74.99,119.3c-0.02-0.37-0.03-0.7-0.03-1.02c-0.1-1.91-0.8-3.74-2-5.23
		c-1.2-1.53-3.04-2.43-4.98-2.44c-2.07,0-4,1.24-5.79,3.72v-5.58c-0.07-1.82,0.03-3.65,0.29-5.46c0.17-0.61,0.53-1.15,1.01-1.55
		c0.42-0.32,0.94-0.48,1.47-0.48c0.51,0,1.01,0.15,1.45,0.41c0.55,0.37,1.01,0.86,1.32,1.45c0.4,0.53,0.84,1.03,1.32,1.49
		c0.29,0.17,0.62,0.27,0.95,0.29c0.45-0.07,0.86-0.28,1.18-0.59c0.3-0.28,0.47-0.68,0.48-1.1c-0.03-0.83-0.48-1.6-1.2-2.03
		c-1.11-0.87-2.48-1.35-3.89-1.36c-2.91-0.03-5.57,1.63-6.82,4.25c-0.31,0.62-0.57,1.27-0.77,1.94c-0.13,0.9-0.18,1.81-0.14,2.73
		v5.76c1.43-0.27,2.91-0.19,4.31,0.25c0.34-0.3,0.71-0.55,1.11-0.75c0.65-0.35,1.37-0.53,2.11-0.54c1.45,0.05,2.79,0.77,3.62,1.96
		c1.14,1.55,1.7,3.46,1.59,5.38c0,2.61-0.55,4.58-1.65,5.9c-0.76,1.13-1.99,1.86-3.35,1.98c-0.79,0-1.56-0.17-2.28-0.5l-1.12-0.66
		l-0.99-0.87v-7.44c-0.33-1.07-1.19-2.13-3.35-1.76v8.45c2.07,2.29,4.98,3.65,8.06,3.75C71.99,129.67,75.22,122.93,74.99,119.3"/>
	<path id="Caminho_2222" class="st0" d="M59.23,115.14L59.23,115.14L59.23,115.14 M54.7,124c0-1.71,0.39-3.4,1.15-4.93
		c1.03-1.89,3.19-2.87,5.29-2.38c0.29,0.11,0.56,0.28,0.79,0.49c0.54,0.47,0.83,1.15,0.81,1.86l0.18,0.88
		c0.07,0.3,0.19,0.58,0.35,0.83c0.47,0.54,1.17,0.83,1.88,0.79c0.54,0.04,1.07-0.14,1.47-0.5c0.34-0.34,0.52-0.81,0.5-1.29
		c-0.1-1.27-0.77-2.43-1.82-3.16c-1.35-1.07-3.04-1.61-4.76-1.53c-0.24,0-0.47,0.01-0.7,0.03l-0.09,0.01
		c-2.13,0.17-4.12,1.11-5.61,2.65l-0.1,0.1c-0.04,0.04-0.08,0.08-0.12,0.12c-0.02,0.02-0.04,0.04-0.06,0.06
		c-1.91,2.06-2.96,4.76-2.95,7.57c0,5.86,4.75,10.62,10.62,10.62c4.2,0,8.01-2.48,9.71-6.32c-1.56,2.64-4.38,4.28-7.45,4.34
		c-5.03,0-9.11-4.57-9.11-10.2"/>
	<path id="Caminho_2223" class="st1" d="M160.76,118.07l1.68-4.1l1.82,4.1L160.76,118.07z M157.04,122.86h1.66l1.41-3.35h4.83
		l1.51,3.35h1.66l-5.07-11.38h-1.14L157.04,122.86z M150.16,122.86h6.71v-1.47h-5.09v-9.84h-1.62L150.16,122.86z M142.03,122.86
		h6.71v-1.47h-5.09v-9.84h-1.62L142.03,122.86z M133.74,122.84h6.57v-1.44h-4.95v-3.51h4.63v-1.45h-4.63v-3.45h4.79v-1.44h-6.41
		L133.74,122.84z M129.3,118.04c0.35,0.12,0.65,0.34,0.86,0.64c0.2,0.28,0.31,0.61,0.3,0.95c0,0.33-0.1,0.66-0.29,0.94
		c-0.18,0.29-0.45,0.51-0.76,0.64c-0.58,0.17-1.19,0.24-1.8,0.21h-1.6v-3.58h1.51C128.13,117.81,128.73,117.88,129.3,118.04
		 M129.49,114.62c0.02,0.49-0.18,0.95-0.55,1.28c-0.53,0.38-1.19,0.56-1.84,0.5h-1.08v-3.4h1.39
		C128.8,112.99,129.49,113.54,129.49,114.62 M130.39,122.43c0.53-0.25,0.98-0.63,1.31-1.11c0.3-0.46,0.45-1,0.45-1.55
		c0.01-0.7-0.25-1.38-0.73-1.88c-0.53-0.54-1.22-0.9-1.97-1.02c1.04-0.33,1.74-1.3,1.72-2.39c0.04-1.1-0.6-2.12-1.61-2.56
		c-0.69-0.28-1.44-0.41-2.19-0.38h-2.96v11.31h3.83C128.98,122.88,129.72,122.74,130.39,122.43 M115.19,118.22l2.43-5.33l2.44,5.33
		H115.19z M117.39,111.47l-5.23,11.39h0.92l1.78-3.91h5.53l1.79,3.91h0.92l-5.23-11.39H117.39z M108.33,111.4
		c-0.85-0.02-1.68,0.3-2.3,0.88c-0.61,0.53-0.96,1.31-0.96,2.12c-0.02,0.52,0.12,1.03,0.4,1.47c0.24,0.36,0.57,0.67,0.96,0.88
		c0.61,0.31,1.23,0.58,1.87,0.81c0.67,0.2,1.27,0.57,1.74,1.08c0.66,0.89,0.55,2.14-0.26,2.9c-0.46,0.43-1.07,0.67-1.7,0.65
		c-1.05-0.1-2.05-0.52-2.85-1.21v1.03c0.85,0.61,1.85,0.96,2.9,0.99c0.87,0.02,1.7-0.3,2.33-0.9c0.62-0.56,0.97-1.36,0.96-2.2
		c0.03-0.56-0.12-1.12-0.41-1.6c-0.25-0.39-0.6-0.71-1-0.94c-0.61-0.31-1.24-0.58-1.88-0.81c-0.64-0.19-1.22-0.54-1.69-1.01
		c-0.27-0.34-0.41-0.75-0.4-1.18c-0.01-0.59,0.24-1.15,0.68-1.53c0.47-0.42,1.08-0.64,1.7-0.62c0.91,0.06,1.78,0.36,2.53,0.87v-0.96
		C110.15,111.66,109.25,111.42,108.33,111.4 M96.35,118.22l2.43-5.33l2.44,5.33H96.35z M98.55,111.47l-5.23,11.39h0.92l1.78-3.91
		h5.53l1.79,3.91h0.92l-5.23-11.39H98.55z M88.04,111.41c-1.56-0.02-3.07,0.58-4.19,1.67c-2.3,2.23-2.35,5.9-0.12,8.2
		c0.03,0.03,0.05,0.05,0.08,0.08c1.15,1.11,2.7,1.7,4.3,1.66c1.4-0.02,2.78-0.38,4.01-1.06v-0.91c-1.23,0.71-2.61,1.11-4.02,1.16
		c-1.35,0.05-2.66-0.46-3.64-1.4c-0.95-0.94-1.47-2.23-1.43-3.57c-0.04-1.34,0.48-2.63,1.42-3.58c0.92-0.95,2.2-1.47,3.52-1.43
		c1.41,0.02,2.8,0.4,4.03,1.09v-0.96C90.78,111.76,89.42,111.43,88.04,111.41"/>
	<path id="Caminho_2224" class="st0" d="M166.99,129.69c-0.27,0.3-0.57,0.63-0.76,0.87c-0.02-0.04-0.03-0.09-0.03-0.14
		c0.01-0.38,0.28-0.7,0.65-0.76C166.91,129.67,166.94,129.69,166.99,129.69 M167.29,129.86c0.48,0.35,0.98,0.68,1.5,0.98
		c-0.24,0.37-0.65,0.59-1.09,0.57c-0.55,0-1.08-0.25-1.42-0.68C166.64,130.46,166.98,130.17,167.29,129.86 M167.67,129.45
		c0.54-0.62,1.03-1.27,1.47-1.96c0.31,1,0.26,2.08-0.14,3.05c-0.51-0.29-1-0.6-1.47-0.95C167.59,129.56,167.62,129.5,167.67,129.45
		 M166.01,130.89c0.35,0.58,0.99,0.91,1.66,0.87c0.64,0.06,1.28-0.2,1.68-0.71c0.06,0.02,0.13,0.03,0.19,0.03
		c0.47,0,0.92-0.22,1.2-0.59c0-0.03,0-0.03-0.03-0.03c-0.37,0.15-0.75,0.25-1.14,0.3c0.74-1.12,0.46-3.95-0.19-4.09
		c-0.57-0.11-0.38,0.27-0.41,0.3c-0.51,0.86-1.09,1.68-1.74,2.45c-0.13-0.05-0.27-0.08-0.41-0.08c-0.54,0.01-0.97,0.44-0.98,0.98
		C165.84,130.52,165.9,130.72,166.01,130.89 M162.52,130.94c-0.52,0.33-0.76,0.41-0.84,0.38c-0.08-0.03-0.08-0.14-0.08-0.19
		c0-0.79,1.14-1.99,1.14-1.99c0.33-0.35,1.55-1.77,2.02-1.77c0.27,0,0.3,0.38,0.3,0.63C165.05,129.31,162.63,130.86,162.52,130.94
		 M166.71,127.16c0.05-0.08,0.08-0.18,0.08-0.27c0-0.08-0.03-0.16-0.19-0.16c-0.63,0-0.98,0.59-1.25,1.01
		c0.14-0.76-0.41-1.17-0.95-0.93c0,0-0.82,0.14-2.34,2.02c-0.51,0.63-0.85,1.38-0.98,2.18c0,0.24,0.03,0.74,0.55,0.74
		c0.22,0,0.44-0.07,0.63-0.19c0.62-0.38,1.22-0.8,1.77-1.28v-0.03c-0.11,0.31-0.17,0.63-0.16,0.95c0.01,0.32,0.27,0.59,0.59,0.59
		c0-0.03,0.46,0.14,2.04-1.23c0,0,0.19-0.22,0.19-0.33c0-0.03-0.03-0.05-0.05-0.05c-0.22,0-1.66,1.25-2.12,1.25
		c-0.08,0-0.22-0.03-0.22-0.24S164.36,130.31,166.71,127.16 M161.75,126.04c0.03,0.03,0.05,0.03,0.11,0.03
		c0.27,0,0.71-0.55,0.71-0.98c0-0.16-0.08-0.24-0.19-0.24c-0.3,0-0.74,0.59-0.74,0.98C161.64,125.93,161.67,126.01,161.75,126.04
		 M160.74,127.15c-1.12,1.61-1.88,3.05-1.88,4.03c-0.01,0.32,0.24,0.58,0.56,0.59c0.01,0,0.02,0,0.04,0c0.05,0,0.59,0.03,2.02-1.23
		c0,0,0.19-0.22,0.19-0.33c0-0.03-0.03-0.05-0.05-0.05c-0.05,0-0.09,0.01-0.14,0.03c0,0.05-1.55,1.28-1.96,1.23
		c-0.11,0.01-0.21-0.07-0.22-0.18c0-0.01,0-0.03,0-0.04c0-0.06,0.01-0.13,0.03-0.19c0,0,0.19-0.87,2.37-3.87
		c0.06-0.08,0.1-0.17,0.11-0.27c0-0.11-0.05-0.16-0.19-0.16C161.27,126.75,160.96,126.91,160.74,127.15 M158.17,126.82
		c-1.03,0.35-3,2.78-3,3.98c0,0.55,0.19,1.01,0.98,0.98c1.25-0.05,3.79-2.12,3.79-2.97c0-0.03-0.03-0.08-0.05-0.05
		c-0.35,0.59-2.21,2.64-3.76,2.64c-0.22,0-0.46-0.08-0.46-0.35c0-0.93,1.85-2.94,2.48-3.35c0.17-0.13,0.38-0.21,0.59-0.22
		c0,0.49-0.52,0.95-0.52,1.17c0,0.05-0.03,0.3,0.08,0.33l0.03-0.03l-0.03,0.03c0,0,0.59,0.03,0.79-0.98
		c0.14-0.76-0.08-1.25-0.59-1.25C158.39,126.75,158.28,126.77,158.17,126.82 M155.53,130.2c-0.61,0.47-1.27,0.88-1.96,1.23
		c-0.11,0-0.22-0.03-0.22-0.41c0-0.08,0.05-0.65,2.1-3.46c0.04-0.08,0.06-0.18,0.05-0.27c0-0.35-0.16-0.74-1.09-0.52
		c-1.03,0.44-1.95,1.1-2.7,1.93c0.38-0.55,1.2-1.47,1.2-1.82c0-0.08-0.03-0.16-0.14-0.16c-0.95,0-1.99,1.93-2.81,3.98
		c-0.09,0.22-0.14,0.45-0.14,0.68c0,0.22,0.05,0.35,0.14,0.35c0.22,0,0.3-0.41,0.68-1.04c0.87-1.56,2.22-2.81,3.84-3.57
		c0.08-0.03,0.16-0.05,0.24-0.05c0.05,0.08-0.08,0.27-0.24,0.49c-0.95,1.44-1.61,2.53-1.61,3.43c0,0.54,0.33,0.79,0.63,0.79
		c-0.05,0,0.24,0.16,2.02-1.23c0,0,0.19-0.22,0.19-0.33c0-0.03-0.03-0.05-0.05-0.05C155.62,130.17,155.57,130.18,155.53,130.2
		 M150.3,125.05c-0.11-0.19-0.22-0.24-0.33-0.24c-0.07,0-0.13,0.02-0.19,0.05c-0.24,0.11-1.55,0.79-1.55,0.82
		c0,0.05,0.03,0.11,0.22,0.11c0.46-0.02,0.91-0.12,1.34-0.3c0.59,0.74,1.01,0.84,1.23,0.84s0.11-0.05,0.16-0.11
		C150.65,125.95,150.58,125.54,150.3,125.05 M146.52,130.94c-0.52,0.33-0.76,0.41-0.84,0.38c-0.08-0.03-0.08-0.14-0.08-0.19
		c0-0.79,1.14-1.99,1.14-1.99c0.33-0.35,1.55-1.77,2.02-1.77c0.27,0,0.3,0.38,0.3,0.63C149.05,129.3,146.62,130.86,146.52,130.94
		 M150.71,127.15c0.05-0.08,0.08-0.18,0.08-0.27c0-0.08-0.03-0.16-0.19-0.16c-0.63,0-0.98,0.59-1.25,1.01
		c0.14-0.76-0.41-1.17-0.95-0.93c0,0-0.82,0.14-2.34,2.02c-0.51,0.63-0.85,1.38-0.98,2.18c0,0.24,0.03,0.74,0.55,0.74
		c0.22,0,0.44-0.07,0.63-0.19c0.62-0.38,1.22-0.8,1.77-1.28v-0.03c-0.11,0.31-0.17,0.63-0.16,0.95c0.01,0.32,0.27,0.59,0.59,0.59
		c0-0.03,0.46,0.14,2.04-1.23c0,0,0.19-0.22,0.19-0.33c0-0.03-0.03-0.05-0.05-0.05c-0.22,0-1.66,1.25-2.12,1.25
		c-0.08,0-0.22-0.03-0.22-0.24S148.36,130.31,150.71,127.15 M145.53,127.23c-0.11,0.47-0.29,0.92-0.54,1.33
		c-0.05,0.14-0.11,0.49,0.14,0.49c0.14,0,0.84-0.3,0.84-1.55c0-0.55-0.24-0.79-0.57-0.79c-0.71,0-1.83,1.09-2.34,1.63
		c0.3-0.46,0.95-1.17,0.95-1.5c0-0.08-0.05-0.11-0.14-0.14c-0.9-0.16-1.85,1.93-2.81,3.98c-0.1,0.21-0.15,0.45-0.14,0.68
		c0,0.22,0.05,0.35,0.14,0.35c0.19,0,0.24-0.33,0.65-1.01c0.8-1.45,1.96-2.67,3.38-3.54C145.23,127.09,145.53,127,145.53,127.23
		 M138.12,130.93c-0.24,0.18-0.52,0.31-0.82,0.38c-0.08,0-0.08-0.14-0.08-0.19c0-0.79,1.14-1.99,1.14-1.99
		c0.33-0.33,1.55-1.77,2.02-1.77c0.3,0.03,0.27,0.63,0.27,0.79C140.11,129.31,139.22,130.28,138.12,130.93 M135.14,134.82
		c-0.46,0-1.12-0.24-1.12-0.87c0-0.98,1.61-1.23,2.51-1.23c0.5,0.03,1,0.08,1.5,0.16C137.43,133.96,136.36,134.68,135.14,134.82
		 M138.28,132.62c-0.55-0.12-1.1-0.18-1.66-0.19c-1.09,0-2.97,0.19-2.97,1.55c0,0.79,1.01,1.2,1.55,1.2
		c1.45-0.1,2.77-0.89,3.54-2.12c1.7,0.43,3.45,0.68,5.2,0.74c2.04,0.02,4.07-0.38,5.94-1.2c0.33-0.14,1.25-0.52,1.25-1.01
		c0-0.1-0.08-0.19-0.18-0.19c0,0-0.01,0-0.01,0c-0.63,0-0.76,0.74-1.28,0.95c-1.74,0.78-3.62,1.18-5.52,1.16
		c-1.74-0.09-3.48-0.34-5.18-0.74c0.82-1.17,2.04-3.79,3.4-5.61c0.05-0.08,0.08-0.18,0.08-0.27c0-0.08-0.03-0.16-0.14-0.16
		c-0.71,0-1.06,0.63-1.28,1.06v-0.11c0-0.24-0.05-0.93-0.74-0.93c-0.09,0.01-0.18,0.03-0.27,0.05c0,0-0.82,0.14-2.34,2.02
		c-0.51,0.63-0.85,1.38-0.98,2.18c0,0.33,0.05,0.74,0.65,0.74c0.19-0.02,0.38-0.08,0.55-0.19c0.62-0.38,1.22-0.8,1.77-1.28
		l0.03-0.05c-0.4,0.84-0.87,1.65-1.39,2.42 M133.22,130.95c-0.52,0.33-0.76,0.41-0.84,0.38c-0.08-0.03-0.08-0.14-0.08-0.19
		c0-0.79,1.14-1.99,1.14-1.99c0.33-0.35,1.55-1.77,2.02-1.77c0.27,0,0.3,0.38,0.3,0.63C135.75,129.31,133.32,130.87,133.22,130.95
		 M137.41,127.16c0.05-0.08,0.08-0.18,0.08-0.27c0-0.08-0.03-0.16-0.19-0.16c-0.63,0-0.98,0.59-1.25,1.01
		c0.14-0.76-0.41-1.17-0.95-0.93c0,0-0.82,0.14-2.34,2.02c-0.51,0.63-0.85,1.38-0.98,2.18c0,0.24,0.03,0.74,0.55,0.74
		c0.22,0,0.44-0.07,0.63-0.19c0.62-0.38,1.22-0.8,1.77-1.28v-0.03c-0.11,0.31-0.17,0.63-0.16,0.95c0.01,0.32,0.27,0.59,0.59,0.59
		c0-0.03,0.46,0.14,2.04-1.23c0,0,0.19-0.22,0.19-0.33c0-0.03-0.03-0.05-0.05-0.05c-0.22,0-1.66,1.25-2.12,1.25
		c-0.08,0-0.22-0.03-0.22-0.24C134.98,130.97,135.06,130.32,137.41,127.16 M132.23,127.24c-0.11,0.47-0.3,0.92-0.55,1.33
		c-0.05,0.14-0.11,0.49,0.14,0.49c0.14,0,0.84-0.3,0.84-1.55c0-0.55-0.24-0.79-0.57-0.79c-0.71,0-1.82,1.09-2.34,1.63
		c0.3-0.46,0.95-1.17,0.95-1.5c0-0.08-0.05-0.11-0.14-0.14c-0.9-0.16-1.85,1.93-2.81,3.98c-0.1,0.21-0.15,0.45-0.14,0.68
		c0,0.22,0.05,0.35,0.14,0.35c0.19,0,0.24-0.33,0.65-1.01c0.8-1.45,1.96-2.67,3.38-3.54C131.93,127.1,132.23,127.02,132.23,127.24
		 M127.11,126.96c-0.06-0.14-0.13-0.28-0.22-0.41h1.17c-0.24,0.3-0.46,0.63-0.71,0.95C127.27,127.32,127.19,127.13,127.11,126.96
		 M125.15,133.12c-0.08,0-0.16-0.05-0.16-0.22c0-0.59,1.06-2.29,2.32-4.06c0,0.14,0.03,0.27,0.03,0.38
		C127.33,130.26,126.32,133.12,125.15,133.12 M127.62,128.41c0.46-0.63,0.95-1.28,1.39-1.85h0.27c0.16,0,0.38-0.08,0.38-0.19
		c0-0.08-0.22-0.16-0.38-0.16c0.93-1.2,1.63-2.07,1.63-2.07c0.09-0.15,0.15-0.32,0.16-0.49c0-0.11-0.08-0.35-0.27-0.35
		c-0.14,0,0.22-0.63-2.48,2.91h-1.68c-0.08,0,0.11,0,0.05,0.03c-0.44-0.38-0.98-0.84-1.42-0.84c-0.11,0-0.19,0.03-0.19,0.14
		c0,0.49,1.23,0.93,1.36,1.01c0.27,0.41,0.49,0.85,0.65,1.31c-1.33,1.88-2.56,3.9-2.56,4.9v0.11c0.01,0.32,0.27,0.59,0.59,0.59
		c1.55,0,2.53-3.05,2.53-4.22C127.69,128.94,127.67,128.67,127.62,128.41"/>
</g>
</svg>
